<svg width="4168" height="150" xmlns="http://www.w3.org/2000/svg" xmlns:xlink="http://www.w3.org/1999/xlink" xml:space="preserve" overflow="hidden"><defs><clipPath id="clip0"><rect x="84" y="707" width="4168" height="150"/></clipPath></defs><g clip-path="url(#clip0)" transform="translate(-84 -707)"><path d="M335 782C335 740.579 368.579 707 410 707 451.421 707 485 740.579 485 782 485 823.421 451.421 857 410 857 368.579 857 335 823.421 335 782Z" fill="#FBF3F8" fill-rule="evenodd"/><path d="M586 782C586 740.579 619.579 707 661 707 702.421 707 736 740.579 736 782 736 823.421 702.421 857 661 857 619.579 857 586 823.421 586 782Z" fill="#FBF3F8" fill-rule="evenodd"/><path d="M837 782C837 740.579 870.579 707 912 707 953.421 707 987 740.579 987 782 987 823.421 953.421 857 912 857 870.579 857 837 823.421 837 782Z" fill="#FBF3F8" fill-rule="evenodd"/><path d="M1089 782C1089 740.579 1122.58 707 1164 707 1205.42 707 1239 740.579 1239 782 1239 823.421 1205.42 857 1164 857 1122.58 857 1089 823.421 1089 782Z" fill="#FBF3F8" fill-rule="evenodd"/><path d="M1340 782C1340 740.579 1373.58 707 1415 707 1456.42 707 1490 740.579 1490 782 1490 823.421 1456.42 857 1415 857 1373.58 857 1340 823.421 1340 782Z" fill="#FBF3F8" fill-rule="evenodd"/><path d="M1591 782C1591 740.579 1624.58 707 1666 707 1707.42 707 1741 740.579 1741 782 1741 823.421 1707.42 857 1666 857 1624.58 857 1591 823.421 1591 782Z" fill="#FBF3F8" fill-rule="evenodd"/><path d="M1842 782C1842 740.579 1875.58 707 1917 707 1958.42 707 1992 740.579 1992 782 1992 823.421 1958.42 857 1917 857 1875.58 857 1842 823.421 1842 782Z" fill="#FBF3F8" fill-rule="evenodd"/><path d="M83.9999 782C83.9999 740.579 117.579 707 159 707 200.421 707 234 740.579 234 782 234 823.421 200.421 857 159 857 117.579 857 83.9999 823.421 83.9999 782Z" fill="#FBF3F8" fill-rule="evenodd"/><path d="M2344 782C2344 740.579 2377.58 707 2419 707 2460.42 707 2494 740.579 2494 782 2494 823.421 2460.42 857 2419 857 2377.58 857 2344 823.421 2344 782Z" fill="#FBF3F8" fill-rule="evenodd"/><path d="M2595 782C2595 740.579 2628.58 707 2670 707 2711.42 707 2745 740.579 2745 782 2745 823.421 2711.42 857 2670 857 2628.58 857 2595 823.421 2595 782Z" fill="#FBF3F8" fill-rule="evenodd"/><path d="M2846 782C2846 740.579 2879.58 707 2921 707 2962.42 707 2996 740.579 2996 782 2996 823.421 2962.42 857 2921 857 2879.58 857 2846 823.421 2846 782Z" fill="#FBF3F8" fill-rule="evenodd"/><path d="M3098 782C3098 740.579 3131.58 707 3173 707 3214.42 707 3248 740.579 3248 782 3248 823.421 3214.42 857 3173 857 3131.58 857 3098 823.421 3098 782Z" fill="#FBF3F8" fill-rule="evenodd"/><path d="M3349 782C3349 740.579 3382.58 707 3424 707 3465.42 707 3499 740.579 3499 782 3499 823.421 3465.42 857 3424 857 3382.58 857 3349 823.421 3349 782Z" fill="#FBF3F8" fill-rule="evenodd"/><path d="M3600 782C3600 740.579 3633.58 707 3675 707 3716.42 707 3750 740.579 3750 782 3750 823.421 3716.42 857 3675 857 3633.58 857 3600 823.421 3600 782Z" fill="#FBF3F8" fill-rule="evenodd"/><path d="M3851 782C3851 740.579 3884.58 707 3926 707 3967.42 707 4001 740.579 4001 782 4001 823.421 3967.42 857 3926 857 3884.58 857 3851 823.421 3851 782Z" fill="#FBF3F8" fill-rule="evenodd"/><path d="M2093 782C2093 740.579 2126.58 707 2168 707 2209.42 707 2243 740.579 2243 782 2243 823.421 2209.42 857 2168 857 2126.58 857 2093 823.421 2093 782Z" fill="#FBF3F8" fill-rule="evenodd"/><path d="M4102 782C4102 740.579 4135.58 707 4177 707 4218.42 707 4252 740.579 4252 782 4252 823.421 4218.42 857 4177 857 4135.58 857 4102 823.421 4102 782Z" fill="#FBF3F8" fill-rule="evenodd"/></g></svg>